<svg width="81" height="34" viewBox="0 0 81 34" fill="none" xmlns="http://www.w3.org/2000/svg">
<g filter="url(#filter0_d_1_281)">
<path d="M20.5 1.5C23.2627 1.5 19.448 2.78434 22.948 6.22012C24.9827 8.21746 26 10.7001 26 13.6681C26 16.6175 25.0293 19.1375 23.088 21.2281C21.1467 23.3001 18.7573 24.3361 15.92 24.3361C13.0827 24.3361 10.6653 23.3095 8.66801 21.2561C6.68935 19.2028 5.70001 16.7575 5.70001 13.9201C5.70001 12.3708 5.98001 10.9241 6.54001 9.58012C7.10001 8.21746 7.84668 7.07879 8.78001 6.16412C9.71335 5.24945 10.7867 4.53079 12 4.00812C13.2133 3.48545 19.212 1.5 20.5 1.5ZM10.656 13.7801C10.656 15.4415 11.188 16.7948 12.252 17.8401C13.3347 18.8668 14.5387 19.3801 15.864 19.3801C17.1893 19.3801 18.384 18.8761 19.448 17.8681C20.512 16.8601 21.044 15.5068 21.044 13.8081C21.044 12.1095 20.5027 10.7468 19.42 9.72012C18.356 8.69346 17.1613 8.18012 15.836 8.18012C14.5107 8.18012 13.316 8.70279 12.252 9.74812C11.188 10.7748 10.656 12.1188 10.656 13.7801Z" fill="black"/>
<path d="M38.0229 3.22412C40.7856 3.22412 43.1843 4.22279 45.2189 6.22012C47.2536 8.21746 48.271 10.7001 48.271 13.6681C48.271 16.6175 47.3003 19.1375 45.359 21.2281C43.4176 23.3001 41.0283 24.3361 38.1909 24.3361C35.3536 24.3361 32.9363 23.3095 30.9389 21.2561C28.9603 19.2028 27.9709 16.7575 27.9709 13.9201C27.9709 12.3708 28.2509 10.9241 28.8109 9.58012C29.3709 8.21746 30.1176 7.07879 31.0509 6.16412C31.9843 5.24945 33.0576 4.53079 34.2709 4.00812C35.4843 3.48545 36.7349 3.22412 38.0229 3.22412ZM32.9269 13.7801C32.9269 15.4415 33.459 16.7948 34.5229 17.8401C35.6056 18.8668 36.8096 19.3801 38.1349 19.3801C39.4603 19.3801 40.6549 18.8761 41.7189 17.8681C42.7829 16.8601 43.3149 15.5068 43.3149 13.8081C43.3149 12.1095 42.7736 10.7468 41.691 9.72012C40.627 8.69346 39.4323 8.18012 38.1069 8.18012C36.7816 8.18012 35.587 8.70279 34.5229 9.74812C33.459 10.7748 32.9269 12.1188 32.9269 13.7801Z" fill="black"/>
<path d="M53.4899 2.74812L58.6699 2.77612C61.3766 2.77612 63.7566 3.75612 65.8099 5.71612C67.8632 7.65745 68.8899 10.0561 68.8899 12.9121C68.8899 15.7495 67.8819 18.1855 65.8659 20.2201C63.8686 22.2548 61.4419 23.2721 58.5859 23.2721H53.4619C52.3232 23.2721 51.6139 23.0388 51.3339 22.5721C51.1099 22.1801 50.9979 21.5828 50.9979 20.7801V5.21212C50.9979 4.76412 51.0072 4.43745 51.0259 4.23212C51.0632 4.02679 51.1566 3.78412 51.3059 3.50412C51.5672 3.00012 52.2952 2.74812 53.4899 2.74812ZM58.6699 18.3161C60.0139 18.3161 61.2272 17.8215 62.3099 16.8321C63.3926 15.8241 63.9339 14.5641 63.9339 13.0521C63.9339 11.5401 63.4019 10.2801 62.3379 9.27212C61.2926 8.24545 60.0606 7.73212 58.6419 7.73212H55.9539V18.3161H58.6699Z" fill="black"/>
<path d="M70.9367 5.94012C70.9367 5.51079 70.9461 5.19345 70.9647 4.98812C71.0021 4.76412 71.0954 4.51212 71.2447 4.23212C71.5061 3.72812 72.2341 3.47612 73.4287 3.47612C74.7354 3.47612 75.5101 3.82145 75.7527 4.51212C75.8461 4.82945 75.8927 5.31479 75.8927 5.96812V21.5361C75.8927 21.9841 75.8741 22.3108 75.8367 22.5161C75.8181 22.7215 75.7341 22.9641 75.5847 23.2441C75.3234 23.7481 74.5954 24.0001 73.4007 24.0001C72.0941 24.0001 71.3287 23.6455 71.1047 22.9361C70.9927 22.6375 70.9367 22.1615 70.9367 21.5081V5.94012Z" fill="black"/>
<path d="M23.4529 21.57L23.4544 21.5683C25.4848 19.3818 26.5 16.739 26.5 13.6681C26.5 10.5721 25.433 7.95889 23.2983 5.86331C22.4658 5.04607 22.1044 4.39226 21.9571 3.89189C21.812 3.39912 21.8606 3.0097 21.935 2.68261C21.953 2.60355 21.9722 2.5295 21.9919 2.45316L21.9966 2.43527C22.0169 2.35652 22.0394 2.26917 22.0561 2.1855C22.0852 2.03954 22.1265 1.78191 22.0045 1.53382C21.8677 1.2553 21.6058 1.1344 21.3764 1.07689C21.1475 1.01955 20.8544 1 20.5 1C20.1044 1 19.4263 1.14259 18.6757 1.33388C17.9018 1.53109 16.9844 1.7983 16.074 2.08047C14.2614 2.64226 12.4357 3.27602 11.8022 3.54891C10.5329 4.09568 9.40787 4.84875 8.43005 5.80702C7.44272 6.77459 6.66046 7.97201 6.078 9.38895C5.49133 10.7974 5.20001 12.3095 5.20001 13.9201C5.20001 16.8876 6.24002 19.4571 8.30797 21.6031L8.30961 21.6048C10.4001 23.7538 12.9462 24.8361 15.92 24.8361C18.8957 24.8361 21.4171 23.7428 23.4529 21.57ZM19.0728 10.0799L19.076 10.0829C20.0449 11.0017 20.544 12.2258 20.544 13.8081C20.544 15.3933 20.0524 16.6068 19.1041 17.5051C18.1223 18.4353 17.0474 18.8801 15.864 18.8801C14.6844 18.8801 13.6008 18.4289 12.5993 17.4804C11.6444 16.5406 11.156 15.3224 11.156 13.7801C11.156 12.2361 11.6454 11.0283 12.5992 10.1079L12.5992 10.1079L12.6024 10.1048C13.5857 9.13878 14.6586 8.68012 15.836 8.68012C17.0164 8.68012 18.0903 9.13188 19.0728 10.0799ZM45.7238 21.57L45.7253 21.5683C47.7557 19.3818 48.771 16.739 48.771 13.6681C48.771 10.5721 47.704 7.95889 45.5692 5.86331C43.4444 3.77748 40.9212 2.72412 38.0229 2.72412C36.6652 2.72412 35.3473 3.00004 34.0731 3.54891C32.8039 4.09568 31.6788 4.84875 30.701 5.80701C29.7136 6.77464 28.9313 7.97213 28.3489 9.38915C27.7622 10.7975 27.4709 12.3096 27.4709 13.9201C27.4709 16.8876 28.511 19.4571 30.5789 21.6031L30.5805 21.6048C32.671 23.7538 35.2172 24.8361 38.1909 24.8361C41.1667 24.8361 43.688 23.7428 45.7238 21.57ZM41.3438 10.0799L41.3469 10.0829C42.3158 11.0017 42.8149 12.2258 42.8149 13.8081C42.8149 15.3933 42.3233 16.6068 41.3751 17.5051C40.3933 18.4353 39.3183 18.8801 38.1349 18.8801C36.9553 18.8801 35.8717 18.4288 34.8702 17.4803C33.9153 16.5406 33.4269 15.3224 33.4269 13.7801C33.4269 12.2361 33.9163 11.0283 34.8701 10.1079L34.8701 10.1079L34.8734 10.1048C35.8566 9.13878 36.9296 8.68012 38.1069 8.68012C39.2873 8.68012 40.3612 9.13188 41.3438 10.0799ZM53.4926 2.24812H53.4899C52.8641 2.24812 52.3216 2.31326 51.8843 2.46463C51.4443 2.61693 51.0718 2.87154 50.8635 3.27113C50.7017 3.57482 50.5839 3.86788 50.534 4.14267L50.53 4.16463L50.5279 4.18686C50.5071 4.41632 50.4979 4.76226 50.4979 5.21212V20.7801C50.4979 21.6115 50.6108 22.3144 50.8998 22.8202L50.8997 22.8202L50.9051 22.8294C51.1266 23.1984 51.4934 23.4319 51.9196 23.5721C52.3439 23.7116 52.8643 23.7721 53.4619 23.7721H58.5859C61.5755 23.7721 64.1305 22.7013 66.2219 20.5712C68.3291 18.4441 69.3899 15.8823 69.3899 12.9121C69.3899 9.92072 68.3081 7.39039 66.1543 5.35362C64.0135 3.31049 61.5123 2.27645 58.6712 2.27612C58.6708 2.27612 58.6703 2.27612 58.6699 2.27612L53.4926 2.24812ZM61.9875 9.62884L61.9875 9.6289L61.994 9.6351C62.9548 10.5454 63.4339 11.6725 63.4339 13.0521C63.4339 14.428 62.9483 15.5538 61.9708 16.4646C60.9716 17.377 59.8765 17.8161 58.6699 17.8161H56.4539V8.23212H58.6419C59.9248 8.23212 61.0323 8.69065 61.9875 9.62884ZM70.4715 4.90593L70.4685 4.9243L70.4668 4.94285C70.446 5.17196 70.4367 5.50817 70.4367 5.94012V21.5081C70.4367 22.1649 70.4901 22.7123 70.6319 23.0992C70.9688 24.1412 72.0664 24.5001 73.4007 24.5001C74.0266 24.5001 74.569 24.435 75.0063 24.2836C75.4464 24.1313 75.819 23.8765 76.0273 23.4767C76.1879 23.1751 76.3017 22.8742 76.3324 22.5843C76.3756 22.3327 76.3927 21.9756 76.3927 21.5361V5.96812C76.3927 5.30399 76.3467 4.75966 76.2324 4.37104L76.2288 4.35861L76.2245 4.34638C75.8658 3.32556 74.7653 2.97612 73.4287 2.97612C72.8029 2.97612 72.2605 3.04126 71.8232 3.19263C71.3831 3.34495 71.0106 3.59959 70.8023 3.99925C70.6374 4.30875 70.5204 4.61258 70.4715 4.90593Z" stroke="black"/>
<path d="M23.4529 21.57L23.4544 21.5683C25.4848 19.3818 26.5 16.739 26.5 13.6681C26.5 10.5721 25.433 7.95889 23.2983 5.86331C22.4658 5.04607 22.1044 4.39226 21.9571 3.89189C21.812 3.39912 21.8606 3.0097 21.935 2.68261C21.953 2.60355 21.9722 2.5295 21.9919 2.45316L21.9966 2.43527C22.0169 2.35652 22.0394 2.26917 22.0561 2.1855C22.0852 2.03954 22.1265 1.78191 22.0045 1.53382C21.8677 1.2553 21.6058 1.1344 21.3764 1.07689C21.1475 1.01955 20.8544 1 20.5 1C20.1044 1 19.4263 1.14259 18.6757 1.33388C17.9018 1.53109 16.9844 1.7983 16.074 2.08047C14.2614 2.64226 12.4357 3.27602 11.8022 3.54891C10.5329 4.09568 9.40787 4.84875 8.43005 5.80702C7.44272 6.77459 6.66046 7.97201 6.078 9.38895C5.49133 10.7974 5.20001 12.3095 5.20001 13.9201C5.20001 16.8876 6.24002 19.4571 8.30797 21.6031L8.30961 21.6048C10.4001 23.7538 12.9462 24.8361 15.92 24.8361C18.8957 24.8361 21.4171 23.7428 23.4529 21.57ZM19.0728 10.0799L19.076 10.0829C20.0449 11.0017 20.544 12.2258 20.544 13.8081C20.544 15.3933 20.0524 16.6068 19.1041 17.5051C18.1223 18.4353 17.0474 18.8801 15.864 18.8801C14.6844 18.8801 13.6008 18.4289 12.5993 17.4804C11.6444 16.5406 11.156 15.3224 11.156 13.7801C11.156 12.2361 11.6454 11.0283 12.5992 10.1079L12.5992 10.1079L12.6024 10.1048C13.5857 9.13878 14.6586 8.68012 15.836 8.68012C17.0164 8.68012 18.0903 9.13188 19.0728 10.0799ZM45.7238 21.57L45.7253 21.5683C47.7557 19.3818 48.771 16.739 48.771 13.6681C48.771 10.5721 47.704 7.95889 45.5692 5.86331C43.4444 3.77748 40.9212 2.72412 38.0229 2.72412C36.6652 2.72412 35.3473 3.00004 34.0731 3.54891C32.8039 4.09568 31.6788 4.84875 30.701 5.80701C29.7136 6.77464 28.9313 7.97213 28.3489 9.38915C27.7622 10.7975 27.4709 12.3096 27.4709 13.9201C27.4709 16.8876 28.511 19.4571 30.5789 21.6031L30.5805 21.6048C32.671 23.7538 35.2172 24.8361 38.1909 24.8361C41.1667 24.8361 43.688 23.7428 45.7238 21.57ZM41.3438 10.0799L41.3469 10.0829C42.3158 11.0017 42.8149 12.2258 42.8149 13.8081C42.8149 15.3933 42.3233 16.6068 41.3751 17.5051C40.3933 18.4353 39.3183 18.8801 38.1349 18.8801C36.9553 18.8801 35.8717 18.4288 34.8702 17.4803C33.9153 16.5406 33.4269 15.3224 33.4269 13.7801C33.4269 12.2361 33.9163 11.0283 34.8701 10.1079L34.8701 10.1079L34.8734 10.1048C35.8566 9.13878 36.9296 8.68012 38.1069 8.68012C39.2873 8.68012 40.3612 9.13188 41.3438 10.0799ZM53.4926 2.24812H53.4899C52.8641 2.24812 52.3216 2.31326 51.8843 2.46463C51.4443 2.61693 51.0718 2.87154 50.8635 3.27113C50.7017 3.57482 50.5839 3.86788 50.534 4.14267L50.53 4.16463L50.5279 4.18686C50.5071 4.41632 50.4979 4.76226 50.4979 5.21212V20.7801C50.4979 21.6115 50.6108 22.3144 50.8998 22.8202L50.8997 22.8202L50.9051 22.8294C51.1266 23.1984 51.4934 23.4319 51.9196 23.5721C52.3439 23.7116 52.8643 23.7721 53.4619 23.7721H58.5859C61.5755 23.7721 64.1305 22.7013 66.2219 20.5712C68.3291 18.4441 69.3899 15.8823 69.3899 12.9121C69.3899 9.92072 68.3081 7.39039 66.1543 5.35362C64.0135 3.31049 61.5123 2.27645 58.6712 2.27612C58.6708 2.27612 58.6703 2.27612 58.6699 2.27612L53.4926 2.24812ZM61.9875 9.62884L61.9875 9.6289L61.994 9.6351C62.9548 10.5454 63.4339 11.6725 63.4339 13.0521C63.4339 14.428 62.9483 15.5538 61.9708 16.4646C60.9716 17.377 59.8765 17.8161 58.6699 17.8161H56.4539V8.23212H58.6419C59.9248 8.23212 61.0323 8.69065 61.9875 9.62884ZM70.4715 4.90593L70.4685 4.9243L70.4668 4.94285C70.446 5.17196 70.4367 5.50817 70.4367 5.94012V21.5081C70.4367 22.1649 70.4901 22.7123 70.6319 23.0992C70.9688 24.1412 72.0664 24.5001 73.4007 24.5001C74.0266 24.5001 74.569 24.435 75.0063 24.2836C75.4464 24.1313 75.819 23.8765 76.0273 23.4767C76.1879 23.1751 76.3017 22.8742 76.3324 22.5843C76.3756 22.3327 76.3927 21.9756 76.3927 21.5361V5.96812C76.3927 5.30399 76.3467 4.75966 76.2324 4.37104L76.2288 4.35861L76.2245 4.34638C75.8658 3.32556 74.7653 2.97612 73.4287 2.97612C72.8029 2.97612 72.2605 3.04126 71.8232 3.19263C71.3831 3.34495 71.0106 3.59959 70.8023 3.99925C70.6374 4.30875 70.5204 4.61258 70.4715 4.90593Z" stroke="black" stroke-opacity="0.2"/>
</g>
<defs>
<filter id="filter0_d_1_281" x="0.700012" y="0.5" width="80.1927" height="32.8362" filterUnits="userSpaceOnUse" color-interpolation-filters="sRGB">
<feFlood flood-opacity="0" result="BackgroundImageFix"/>
<feColorMatrix in="SourceAlpha" type="matrix" values="0 0 0 0 0 0 0 0 0 0 0 0 0 0 0 0 0 0 127 0" result="hardAlpha"/>
<feOffset dy="4"/>
<feGaussianBlur stdDeviation="2"/>
<feComposite in2="hardAlpha" operator="out"/>
<feColorMatrix type="matrix" values="0 0 0 0 0 0 0 0 0 0 0 0 0 0 0 0 0 0 0.25 0"/>
<feBlend mode="normal" in2="BackgroundImageFix" result="effect1_dropShadow_1_281"/>
<feBlend mode="normal" in="SourceGraphic" in2="effect1_dropShadow_1_281" result="shape"/>
</filter>
</defs>
</svg>
